<?xml version="1.0" encoding="UTF-8" standalone="no"?>
<svg
   xmlns:dc="http://purl.org/dc/elements/1.1/"
   xmlns:cc="http://creativecommons.org/ns#"
   xmlns:rdf="http://www.w3.org/1999/02/22-rdf-syntax-ns#"
   xmlns:svg="http://www.w3.org/2000/svg"
   xmlns="http://www.w3.org/2000/svg"
   xmlns:sodipodi="http://sodipodi.sourceforge.net/DTD/sodipodi-0.dtd"
   xmlns:inkscape="http://www.inkscape.org/namespaces/inkscape"
   width="464.258"
   height="464.61566"
   viewBox="0 0 371.4064 371.69253"
   version="1.1"
   id="svg2"
   inkscape:version="0.48.4 r9939"
   sodipodi:docname="ic_mconf_iconballoon.svg">
  <metadata
     id="metadata196">
    <rdf:RDF>
      <cc:Work
         rdf:about="">
        <dc:format>image/svg+xml</dc:format>
        <dc:type
           rdf:resource="http://purl.org/dc/dcmitype/StillImage" />
      </cc:Work>
    </rdf:RDF>
  </metadata>
  <defs
     id="defs194" />
  <sodipodi:namedview
     pagecolor="#ffffff"
     bordercolor="#666666"
     borderopacity="1"
     objecttolerance="10"
     gridtolerance="10"
     guidetolerance="10"
     inkscape:pageopacity="0"
     inkscape:pageshadow="2"
     inkscape:window-width="640"
     inkscape:window-height="480"
     id="namedview192"
     showgrid="false"
     fit-margin-top="0"
     fit-margin-left="0"
     fit-margin-right="0"
     fit-margin-bottom="0"
     inkscape:zoom="0.48911917"
     inkscape:cx="233.28753"
     inkscape:cy="233.1375"
     inkscape:window-x="1190"
     inkscape:window-y="164"
     inkscape:window-maximized="0"
     inkscape:current-layer="svg2" />
  <path
     d="m 171.37002,0.51252567 c 9.6,-0.65 19.22,-0.74 28.82,0.07 l 0,0.57000003 c 0,9.0100003 -0.05,18.0200003 0.02,27.0300003 -9.48,-0.1 -18.97,-0.29 -28.45,0.11 -0.31,9.71 -0.08,19.43 -0.11,29.15 -0.1,9.29 0.12,18.59 -0.11,27.88 l -0.03,0.75 c -9.25,0.17 -18.59,-0.84 -27.76,0.57 -0.35,-0.32 -0.7,-0.63 -1.05,-0.95 -0.31,-9.53 -0.1,-19.07 -0.15,-28.61 9.34,-0.27 18.68,0.05 28.02,-0.14 0.62,-9.49 -0.25,-19.02 0.5,-28.51 0.58,-9.14 0.07,-18.3 0.3,-27.45000033 l 0,-0.47 z"
     id="path4"
     inkscape:connector-curvature="0"
     style="fill:#a8babd" />
  <path
     d="m 143.32002,5.0525257 c 9.18,-2.2 18.57,-4.09000003 28.05,-4.07000003 -0.23,9.15000033 0.28,18.31000033 -0.3,27.45000033 -9.24,-0.23 -18.48,0.06 -27.72,-0.18 -0.24,-7.73 -0.15,-15.47 -0.03,-23.2000003 z"
     id="path6"
     inkscape:connector-curvature="0"
     style="fill:#e8edee" />
  <path
     d="m 200.19002,1.1525257 c 9.49,-0.25000003 18.92,1.78 28.14,3.89 -0.28,6.7000003 0.18,13.4200003 -0.06,20.1200003 -0.16,1.08 0.01,3.14 -1.69,2.91 -8.77,0.44 -17.58,0.02 -26.37,0.11 -0.07,-9.01 -0.02,-18.02 -0.02,-27.0300003 z"
     id="path8"
     inkscape:connector-curvature="0"
     style="fill:#e8edee" />
  <path
     d="m 114.64002,14.032526 c 9.31,-3.71 18.83,-7.0400003 28.68,-8.9800003 -0.12,7.7300003 -0.21,15.4700003 0.03,23.2000003 9.24,0.24 18.48,-0.05 27.72,0.18 -0.75,9.49 0.12,19.02 -0.5,28.51 -9.34,0.19 -18.68,-0.13 -28.02,0.14 0.05,9.54 -0.16,19.08 0.15,28.61 -9.35,0.14 -18.71,0.03 -28.07,0.07 0.16,-9.54 0.02,-19.08 0.15,-28.62 9.2,-0.24 18.39,0.04 27.59,-0.2 0.45,-9.23 0.22,-18.48 0.13,-27.72 -9.58,-0.43 -19.17,-0.01 -28.75,-0.18 -9.11,-0.18 -18.219998,-0.1 -27.339998,-0.06 0.36,-0.32 1.08,-0.96 1.44,-1.28 l 0.29,0.04 c 8.79,1.03 17.659998,0.45 26.489998,0.41 0.13,-4.71 0.13,-9.42 0.01,-14.12 z"
     id="path10"
     inkscape:connector-curvature="0"
     style="fill:#bdcbcd" />
  <path
     d="m 228.33002,5.0425257 c 9.98,2.13 19.7,5.4300003 29.12,9.3600003 l -0.03,0.63 c -0.18,4.42 -0.19,8.83 -0.05,13.25 l -0.44,0 c -9.52,0 -19.04,-0.05 -28.56,0.02 -0.13,9.01 -0.42,18.06 0.08,27.06 0.19,0.3 0.58,0.91 0.77,1.22 1.46,1.4 3.64,0.9 5.47,1.06 7.58,-0.13 15.16,0.03 22.74,-0.17 -0.27,9.42 -0.22,18.85 -0.06,28.27 -9.58,0.01 -19.16,0.01 -28.74,0 -0.25,-9.42 0.47,-18.93 -0.27,-28.28 -9.29,-0.77 -18.75,0 -28.1,-0.3 -0.1,-9.66 -0.02,-19.32 -0.05,-28.98 8.79,-0.09 17.6,0.33 26.37,-0.11 1.7,0.23 1.53,-1.83 1.69,-2.91 0.24,-6.7 -0.22,-13.42 0.06,-20.1200003 z"
     id="path12"
     inkscape:connector-curvature="0"
     style="fill:#d3dcde" />
  <path
     d="m 88.140022,27.742526 c 8.39,-5.37 17.329998,-9.83 26.499998,-13.71 0.12,4.7 0.12,9.41 -0.01,14.12 -8.83,0.04 -17.699998,0.62 -26.489998,-0.41 z"
     id="path14"
     inkscape:connector-curvature="0"
     style="fill:#a8babd" />
  <path
     d="m 257.42002,15.032526 c 2.45,0.44 4.81,1.25 6.99,2.44 6.58,3.42 13.5,6.35 19.4,10.91 -8.81,-0.19 -17.63,0.08 -26.44,-0.1 -0.14,-4.42 -0.13,-8.83 0.05,-13.25 z"
     id="path16"
     inkscape:connector-curvature="0"
     style="fill:#e8edee" />
  <path
     d="m 171.76002,28.292526 c 9.48,-0.4 18.97,-0.21 28.45,-0.11 0.03,9.66 -0.05,19.32 0.05,28.98 9.35,0.3 18.81,-0.47 28.1,0.3 0.74,9.35 0.02,18.86 0.27,28.28 -9.56,9.65 -19.13,19.300004 -28.84,28.800004 0.07,-9.74 -0.04,-19.490004 0.02,-29.230004 0.02,-9.28 0.14,-18.56 -0.06,-27.84 -9.37,-0.02 -18.73,0.03 -28.1,-0.03 0.03,-9.72 -0.2,-19.44 0.11,-29.15 z"
     id="path18"
     inkscape:connector-curvature="0"
     style="fill:#92a8ad" />
  <path
     d="m 228.37002,28.302526 c 9.52,-0.07 19.04,-0.02 28.56,-0.02 0.86,9.7 -0.01,19.46 0.5,29.19 -7.58,0.2 -15.16,0.04 -22.74,0.17 -1.83,-0.16 -4.01,0.34 -5.47,-1.06 -0.19,-0.31 -0.58,-0.92 -0.77,-1.22 -0.5,-9 -0.21,-18.05 -0.08,-27.06 z"
     id="path20"
     inkscape:connector-curvature="0"
     style="fill:#a8babd" />
  <path
     d="m 256.93002,28.282526 0.44,0 c 8.81,0.18 17.63,-0.09 26.44,0.1 0.76,0.19 1.52,0.41 2.28,0.65 l -0.05,0.44 c -0.96,9.24 -0.24,18.55 -0.42,27.83 9.71,-0.05 19.44,0.2 29.15,-0.21 l -0.08,0.98 c -9.67,-0.28 -19.35,0.1 -29.02,-0.29 -9.4,-0.57 -18.83,-0.1 -28.24,-0.31 -0.51,-9.73 0.36,-19.49 -0.5,-29.19 z"
     id="path22"
     inkscape:connector-curvature="0"
     style="fill:#bdcbcd" />
  <path
     d="m 85.360022,28.982526 c 0.27,0 0.79,0 1.05,0 9.12,-0.04 18.229998,-0.12 27.339998,0.06 0.18,9.37 0.04,18.74 0.05,28.12 -8.86,-0.05 -17.729998,0.24 -26.579998,-0.23 -0.61,0.62 -1.22,1.23 -1.84,1.84 0.54,8.94 0.02,17.9 0.36,26.85 -9.37,-0.49 -18.76,0.04 -28.13,-0.31 -0.35,-9.26 0.04,-18.53 -0.23,-27.79 9,-0.01 18,-0.29 27,0.18 0.59,-0.58 1.19,-1.18 1.77,-1.78 -0.77,-8.84 0.47,-17.75 -0.74,-26.55 l -0.05,-0.39 z"
     id="path24"
     inkscape:connector-curvature="0"
     style="fill:#e8edee" />
  <path
     d="m 113.75002,29.042526 c 9.58,0.17 19.17,-0.25 28.75,0.18 0.09,9.24 0.32,18.49 -0.13,27.72 -9.2,0.24 -18.39,-0.04 -27.59,0.2 l -0.98,0.02 c -0.01,-9.38 0.13,-18.75 -0.05,-28.12 z"
     id="path26"
     inkscape:connector-curvature="0"
     style="fill:#d3dcde" />
  <path
     d="m 51.390022,57.782526 c 9.88,-11.05 21.66,-20.29 34.02,-28.41 1.21,8.8 -0.03,17.71 0.74,26.55 -0.58,0.6 -1.18,1.2 -1.77,1.78 -9,-0.47 -18,-0.19 -27,-0.18 -2,0.04 -4,0.1 -5.99,0.26 z"
     id="path28"
     inkscape:connector-curvature="0"
     style="fill:#92a8ad" />
  <path
     d="m 285.62002,57.302526 c 0.18,-9.28 -0.54,-18.59 0.42,-27.83 12.21,7.78 23.36,17.15 33.49,27.48 -1.59,0.04 -3.18,0.08 -4.76,0.14 -9.71,0.41 -19.44,0.16 -29.15,0.21 z"
     id="path30"
     inkscape:connector-curvature="0"
     style="fill:#92a8ad" />
  <path
     d="m 85.380022,58.772526 c 0.62,-0.61 1.23,-1.22 1.84,-1.84 8.85,0.47 17.719998,0.18 26.579998,0.23 l 0.98,-0.02 c -0.13,9.54 0.01,19.08 -0.15,28.62 -9.63,-0.07 -19.269998,0.17 -28.889998,-0.14 -0.34,-8.95 0.18,-17.91 -0.36,-26.85 z"
     id="path32"
     inkscape:connector-curvature="0"
     style="fill:#a8babd" />
  <path
     d="m 171.65002,57.442526 c 9.37,0.06 18.73,0.01 28.1,0.03 0.2,9.28 0.08,18.56 0.06,27.84 -9.42,0.16 -18.85,0.08 -28.27,0.01 0.23,-9.29 0.01,-18.59 0.11,-27.88 z"
     id="path34"
     inkscape:connector-curvature="0"
     style="fill:#e8edee" />
  <path
     d="m 257.43002,57.472526 c 9.41,0.21 18.84,-0.26 28.24,0.31 -0.06,9.32 -0.46,18.67 0.23,27.98 9.23,0.91 18.52,0 27.77,0.51 0.35,9.3 0.05,18.610004 0.17,27.910004 -9.33,-0.03 -18.66,0 -27.99,-0.04 0.01,-9.47 -0.04,-18.940004 0.03,-28.410004 -9.51,0.02 -19.01,0 -28.51,0.01 -0.16,-9.42 -0.21,-18.85 0.06,-28.27 z"
     id="path36"
     inkscape:connector-curvature="0"
     style="fill:#e8edee" />
  <path
     d="m 314.77002,57.092526 c 1.58,-0.06 3.17,-0.1 4.76,-0.14 8.08,8.88 16.06,17.99 22.08,28.43 -8.97,-0.17 -17.94,0.26 -26.9,-0.14 -0.16,-9.06 -0.23,-18.12 -0.02,-27.17 l 0.08,-0.98 z"
     id="path38"
     inkscape:connector-curvature="0"
     style="fill:#e8edee" />
  <path
     d="m 29.100022,85.622526 c 6.8,-9.74 13.65,-19.64 22.29,-27.84 1.99,-0.16 3.99,-0.22 5.99,-0.26 0.27,9.26 -0.12,18.53 0.23,27.79 9.37,0.35 18.76,-0.18 28.13,0.31 l 0.01,0.66 c -9.4,-0.33 -18.8,-0.3 -28.2,-0.04 -0.46,9.43 0.14,18.880004 -0.34,28.320004 -1.52,-9.32 -0.15,-18.880004 -0.7,-28.290004 -9.13,-0.46 -18.33,0.72 -27.41,-0.65 z"
     id="path40"
     inkscape:connector-curvature="0"
     style="fill:#bdcbcd" />
  <path
     d="m 285.67002,57.782526 c 9.67,0.39 19.35,0.01 29.02,0.29 -0.21,9.05 -0.14,18.11 0.02,27.17 8.96,0.4 17.93,-0.03 26.9,0.14 0.32,0.42 0.97,1.27 1.3,1.69 0.08,9.03 0.21,18.070004 -0.1,27.100004 -9.66,0.01 -19.31,0.01 -28.97,0.01 -0.12,-9.3 0.18,-18.610004 -0.17,-27.910004 -9.25,-0.51 -18.54,0.4 -27.77,-0.51 -0.69,-9.31 -0.29,-18.66 -0.23,-27.98 z"
     id="path42"
     inkscape:connector-curvature="0"
     style="fill:#d3dcde" />
  <path
     d="m 28.580022,86.982526 c 0.13,-0.34 0.39,-1.02 0.52,-1.36 9.08,1.37 18.28,0.19 27.41,0.65 0.55,9.41 -0.82,18.970004 0.7,28.290004 9.52,0.04 19.05,0.06 28.57,-0.07 -0.03,9.27 -0.02,18.54 -0.01,27.82 -9.65,0.06 -19.3,-0.09 -28.95,0.02 -0.18,-9.23 0.56,-18.51 -0.42,-27.71 -8.92,-0.16 -17.85,-0.07 -26.78,-0.1 -0.55,9.23 -0.18,18.48 -0.17,27.72 l -0.73,-0.38 c -0.37,-9.22 -0.09,-18.46 -0.12,-27.69 0,-9.06 -0.18,-18.130004 -0.02,-27.190004 z"
     id="path44"
     inkscape:connector-curvature="0"
     style="fill:#d3dcde" />
  <path
     d="m 85.740022,85.622526 c 9.62,0.31 19.259998,0.07 28.889998,0.14 9.36,-0.04 18.72,0.07 28.07,-0.07 0.35,0.32 0.7,0.63 1.05,0.95 9.34,9.06 18.41,18.400004 27.68,27.540004 l 0.51,0.52 c 4.58,4.65 9.26,9.2 13.82,13.88 4.52,-4.55 9.05,-9.09 13.6,-13.62 0.1,-0.1 0.32,-0.31 0.43,-0.42 9.71,-9.5 19.28,-19.150004 28.84,-28.800004 9.58,0.01 19.16,0.01 28.74,0 9.5,-0.01 19,0.01 28.51,-0.01 -0.07,9.47 -0.02,18.940004 -0.03,28.410004 -0.01,9.7 -0.01,19.39 0,29.09 0.05,18.99 -0.14,37.99 -0.02,56.99 0.1,9.17 -0.04,18.34 0.09,27.52 -0.55,19.4 0.07,38.83 -0.17,58.24 -9.56,0 -19.12,0.01 -28.67,0 -9.53,0 -19.06,-0.04 -28.59,0.02 l -0.01,-0.45 c -0.25,-9.45 -0.04,-18.91 -0.1,-28.37 0,-9.64 0.01,-19.29 0.01,-28.93 0,-9.33 0.01,-18.65 0.01,-27.98 0,-9.55 0.03,-19.1 0,-28.66 -9.35,9.47 -18.83,18.8 -28.15,28.3 -0.21,0.23 -0.64,0.67 -0.86,0.9 -4.68,4.45 -9.16,9.1 -13.76,13.64 -4.71,-4.62 -9.25,-9.39 -14.04,-13.93 -0.11,-0.1 -0.33,-0.31 -0.44,-0.42 -9.23,-9.56 -18.78,-18.82 -28.08,-28.32 -0.02,9.47 0,18.94 0.02,28.41 0.02,9.37 0.02,18.73 0.02,28.09 0.01,9.64 0.02,19.28 0.03,28.91 -0.04,9.55 0.1,19.1 -0.05,28.65 -9.77,0.29 -19.55,0.06 -29.32,0.13 -9.36,0.02 -18.709998,-0.05 -28.069998,0.04 -0.17,-9.69 -0.02,-19.39 -0.07,-29.08 0,-9.39 0.01,-18.78 0.04,-28.16 0.03,-9.62 0.05,-19.25 0.05,-28.87 0,-9.26 0.02,-18.52 0.05,-27.78 0.02,-9.94 0.02,-19.88 0,-29.81 -0.01,-9.28 -0.02,-18.55 0.01,-27.82 0.02,-9.4 0.08,-18.800004 -0.03,-28.210004 l -0.01,-0.66 z"
     id="path46"
     inkscape:connector-curvature="0"
     style="fill:#123b43" />
  <path
     d="m 171.54002,85.322526 c 9.42,0.07 18.85,0.15 28.27,-0.01 -0.06,9.74 0.05,19.490004 -0.02,29.230004 -0.11,0.11 -0.33,0.32 -0.43,0.42 -9.12,-0.8 -18.29,-0.4 -27.42,-0.26 l -0.51,-0.52 c -0.28,-9.37 -0.27,-18.750004 0.08,-28.110004 l 0.03,-0.75 z"
     id="path48"
     inkscape:connector-curvature="0"
     style="fill:#d3dcde" />
  <path
     d="m 57.550022,86.242526 c 9.4,-0.26 18.8,-0.29 28.2,0.04 0.11,9.41 0.05,18.810004 0.03,28.210004 -9.52,0.13 -19.05,0.11 -28.57,0.07 0.48,-9.44 -0.12,-18.890004 0.34,-28.320004 z"
     id="path50"
     inkscape:connector-curvature="0"
     style="fill:#a8babd" />
  <path
     d="m 143.75002,86.642526 c 9.17,-1.41 18.51,-0.4 27.76,-0.57 -0.35,9.36 -0.36,18.740004 -0.08,28.110004 -9.27,-9.14 -18.34,-18.480004 -27.68,-27.540004 z"
     id="path52"
     inkscape:connector-curvature="0"
     style="fill:#e8edee" />
  <path
     d="m 14.410022,114.05253 c 3.87,-9.43 8.58,-18.540004 14.17,-27.070004 -0.16,9.06 0.02,18.130004 0.02,27.190004 -4.73,0.01 -9.46,0 -14.19,-0.12 z"
     id="path54"
     inkscape:connector-curvature="0"
     style="fill:#e8edee" />
  <path
     d="m 342.91002,87.072526 c 5.37,8.6 10.58,17.490004 13.78,27.160004 -4.37,-0.07 -8.75,-0.07 -13.12,-0.06 l -0.76,0 c 0.31,-9.03 0.18,-18.070004 0.1,-27.100004 z"
     id="path56"
     inkscape:connector-curvature="0"
     style="fill:#e8edee" />
  <path
     d="m 5.3400223,141.26253 c 2.4,-9.25 5.1699997,-18.46 9.0699997,-27.21 4.73,0.12 9.46,0.13 14.19,0.12 0.03,9.23 -0.25,18.47 0.12,27.69 l 0.73,0.38 c 9.11,0.41 18.24,0.12 27.37,0.09 9.65,-0.11 19.3,0.04 28.95,-0.02 0.02,9.93 0.02,19.87 0,29.81 -9.4,-0.16 -18.81,-0.05 -28.21,-0.03 l 0.03,-1.03 c 0.21,-9.3 0.18,-18.61 0.07,-27.91 -9.68,-0.11 -19.36,-0.1 -29.04,0.01 -7.57,-0.02 -15.16,0.33 -22.7299997,-0.11 -0.13,-0.45 -0.41,-1.34 -0.55,-1.79 z"
     id="path58"
     inkscape:connector-curvature="0"
     style="fill:#bdcbcd" />
  <path
     d="m 29.620022,114.52253 c 8.93,0.03 17.86,-0.06 26.78,0.1 0.98,9.2 0.24,18.48 0.42,27.71 -9.13,0.03 -18.26,0.32 -27.37,-0.09 -0.01,-9.24 -0.38,-18.49 0.17,-27.72 z"
     id="path60"
     inkscape:connector-curvature="0"
     style="fill:#e8edee" />
  <path
     d="m 171.94002,114.70253 c 9.13,-0.14 18.3,-0.54 27.42,0.26 -4.55,4.53 -9.08,9.07 -13.6,13.62 -4.56,-4.68 -9.24,-9.23 -13.82,-13.88 z"
     id="path62"
     inkscape:connector-curvature="0"
     style="fill:#e8edee" />
  <path
     d="m 285.85002,114.14253 c 9.33,0.04 18.66,0.01 27.99,0.04 0.19,9.62 0.17,19.25 0.01,28.88 -9.33,0.34 -18.67,0.11 -28,0.17 -0.01,-9.7 -0.01,-19.39 0,-29.09 z"
     id="path64"
     inkscape:connector-curvature="0"
     style="fill:#bdcbcd" />
  <path
     d="m 313.84002,114.18253 c 9.66,0 19.31,0 28.97,-0.01 l 0.76,0 c -0.29,9.63 -0.21,19.27 -0.01,28.91 l -0.93,-0.03 c -9.34,-0.16 -18.68,-0.13 -28.02,-0.02 l -0.76,0.03 c 0.16,-9.63 0.18,-19.26 -0.01,-28.88 z"
     id="path66"
     inkscape:connector-curvature="0"
     style="fill:#92a8ad" />
  <path
     d="m 343.57002,114.17253 c 4.37,-0.01 8.75,-0.01 13.12,0.06 l 0.5,0 c 3.49,8.87 6.59,17.91 8.84,27.18 -0.16,0.41 -0.49,1.23 -0.65,1.64 -7.26,0.52 -14.55,0.22 -21.82,0.03 -0.2,-9.64 -0.28,-19.28 0.01,-28.91 z"
     id="path68"
     inkscape:connector-curvature="0"
     style="fill:#a8babd" />
  <path
     d="m 0.64002232,171.07253 c 0.73999998,-10.04 2.33999998,-20.02 4.69999998,-29.81 0.14,0.45 0.42,1.34 0.55,1.79 7.5699997,0.44 15.1599997,0.09 22.7299997,0.11 -0.03,9.31 -0.02,18.62 -0.02,27.93 -9.32,0.1 -18.6399997,0.07 -27.95999968,-0.02 z"
     id="path70"
     inkscape:connector-curvature="0"
     style="fill:#d3dcde" />
  <path
     d="m 366.03002,141.41253 c 2.36,10.1 4.12,20.37 4.7,30.74 -9.04,-0.1 -18.08,-0.24 -27.12,0.06 -0.31,9.03 -0.31,18.07 0.03,27.09 9.02,0.34 18.05,0.25 27.07,-0.02 -0.54,9.97 -2.14,19.88 -4.43,29.59 l -0.52,0 c -7.61,-0.16 -15.23,-0.09 -22.84,-0.06 0.13,-9.85 0.35,-19.71 -0.13,-29.55 -0.44,-9.09 0,-18.19 -0.27,-27.28 -9.27,-0.26 -18.55,-0.26 -27.81,0.03 -0.5,9.07 0.15,18.15 -0.36,27.22 -0.85,9.83 -0.15,19.7 -0.45,29.55 -9.3,0.08 -18.61,-0.17 -27.9,0.16 -0.02,-0.3 -0.06,-0.9 -0.08,-1.2 -0.13,-9.18 0.01,-18.35 -0.09,-27.52 l 0.66,-0.27 c 9.04,-0.27 18.1,-0.03 27.15,-0.08 0.65,-9.23 -0.19,-18.5 0.44,-27.72 0.03,-0.29 0.09,-0.85 0.12,-1.13 9.45,0.3 18.92,0.13 28.37,0.13 0.1,-9.37 0,-18.73 0.06,-28.1 l 0.93,0.03 c 7.27,0.19 14.56,0.49 21.82,-0.03 0.16,-0.41 0.49,-1.23 0.65,-1.64 z"
     id="path72"
     inkscape:connector-curvature="0"
     style="fill:#bdcbcd" />
  <path
     d="m 28.620022,143.16253 c 9.68,-0.11 19.36,-0.12 29.04,-0.01 0.11,9.3 0.14,18.61 -0.07,27.91 -9.66,0.07 -19.33,-0.05 -28.99,0.03 0,-9.31 -0.01,-18.62 0.02,-27.93 z"
     id="path74"
     inkscape:connector-curvature="0"
     style="fill:#a8babd" />
  <path
     d="m 285.85002,143.23253 c 9.33,-0.06 18.67,0.17 28,-0.17 l 0.76,-0.03 c -0.29,9.33 0.46,18.69 -0.41,27.99 -0.03,0.28 -0.09,0.84 -0.12,1.13 -9.14,-0.27 -18.29,-0.35 -27.42,-0.04 -0.47,9.27 -0.14,18.56 -0.17,27.84 l -0.66,0.27 c -0.12,-19 0.07,-38 0.02,-56.99 z"
     id="path76"
     inkscape:connector-curvature="0"
     style="fill:#d3dcde" />
  <path
     d="m 314.61002,143.03253 c 9.34,-0.11 18.68,-0.14 28.02,0.02 -0.06,9.37 0.04,18.73 -0.06,28.1 -9.45,0 -18.92,0.17 -28.37,-0.13 0.87,-9.3 0.12,-18.66 0.41,-27.99 z"
     id="path78"
     inkscape:connector-curvature="0"
     style="fill:#e8edee" />
  <path
     d="m 0.64002232,171.07253 c 9.31999998,0.09 18.63999968,0.12 27.95999968,0.02 0.03,9.72 -0.07,19.43 0.05,29.15 -9.34,0.13 -18.6799997,0.01 -28.02999968,0.11 -0.83,-9.74 -0.83,-19.54 0.02,-29.28 z"
     id="path80"
     inkscape:connector-curvature="0"
     style="fill:#bdcbcd" />
  <path
     d="m 28.600022,171.09253 c 9.66,-0.08 19.33,0.04 28.99,-0.03 l -0.03,1.03 c -0.15,9.3 -0.21,18.62 0.05,27.92 l -0.6,0.03 c -9.45,0.35 -18.9,0 -28.36,0.2 -0.12,-9.72 -0.02,-19.43 -0.05,-29.15 z"
     id="path82"
     inkscape:connector-curvature="0"
     style="fill:#92a8ad" />
  <path
     d="m 57.560022,172.09253 c 9.4,-0.02 18.81,-0.13 28.21,0.03 -0.03,9.26 -0.05,18.52 -0.05,27.78 -9.37,-0.13 -18.75,-0.32 -28.11,0.11 -0.26,-9.3 -0.2,-18.62 -0.05,-27.92 z"
     id="path84"
     inkscape:connector-curvature="0"
     style="fill:#d3dcde" />
  <path
     d="m 143.09002,200.19253 c -0.02,-9.47 -0.04,-18.94 -0.02,-28.41 9.3,9.5 18.85,18.76 28.08,28.32 -9.35,0.14 -18.71,0.05 -28.06,0.09 z"
     id="path86"
     inkscape:connector-curvature="0"
     style="fill:#a8babd" />
  <path
     d="m 200.25002,199.91253 c 9.32,-9.5 18.8,-18.83 28.15,-28.3 0.03,9.56 0,19.11 0,28.66 -9.38,0 -18.79,0.4 -28.15,-0.36 z"
     id="path88"
     inkscape:connector-curvature="0"
     style="fill:#bdcbcd" />
  <path
     d="m 286.66002,172.11253 c 9.13,-0.31 18.28,-0.23 27.42,0.04 -0.63,9.22 0.21,18.49 -0.44,27.72 -9.05,0.05 -18.11,-0.19 -27.15,0.08 0.03,-9.28 -0.3,-18.57 0.17,-27.84 z"
     id="path90"
     inkscape:connector-curvature="0"
     style="fill:#e8edee" />
  <path
     d="m 314.71002,172.01253 c 9.26,-0.29 18.54,-0.29 27.81,-0.03 0.27,9.09 -0.17,18.19 0.27,27.28 -9.48,0.17 -18.96,0.27 -28.44,-0.03 0.51,-9.07 -0.14,-18.15 0.36,-27.22 z"
     id="path92"
     inkscape:connector-curvature="0"
     style="fill:#a8babd" />
  <path
     d="m 343.61002,172.21253 c 9.04,-0.3 18.08,-0.16 27.12,-0.06 0.87,9.01 0.94,18.13 -0.02,27.13 -9.02,0.27 -18.05,0.36 -27.07,0.02 -0.34,-9.02 -0.34,-18.06 -0.03,-27.09 z"
     id="path94"
     inkscape:connector-curvature="0"
     style="fill:#d3dcde" />
  <path
     d="m 314.35002,199.23253 c 9.48,0.3 18.96,0.2 28.44,0.03 0.48,9.84 0.26,19.7 0.13,29.55 -9.68,-0.09 -19.35,-0.04 -29.02,-0.03 0.3,-9.85 -0.4,-19.72 0.45,-29.55 z"
     id="path96"
     inkscape:connector-curvature="0"
     style="fill:#92a8ad" />
  <path
     d="m 0.62002232,200.35253 c 9.34999998,-0.1 18.68999968,0.02 28.02999968,-0.11 0.58,9.38 0.4,18.79 0.16,28.18 -7.67,-0.21 -15.34,-0.26 -23.0099997,-0.05 -0.12,0.43 -0.36,1.29 -0.48,1.72 -2.35,-9.77 -3.97,-19.72 -4.69999998,-29.74 z"
     id="path98"
     inkscape:connector-curvature="0"
     style="fill:#d3dcde" />
  <path
     d="m 28.650022,200.24253 c 9.46,-0.2 18.91,0.15 28.36,-0.2 0.12,9.5 0.09,19 0.03,28.51 -9.41,0.02 -18.82,0.18 -28.23,-0.13 0.24,-9.39 0.42,-18.8 -0.16,-28.18 z"
     id="path100"
     inkscape:connector-curvature="0"
     style="fill:#e8edee" />
  <path
     d="m 57.010022,200.04253 0.6,-0.03 c 9.36,-0.43 18.74,-0.24 28.11,-0.11 0,9.62 -0.02,19.25 -0.05,28.87 -9.48,-0.06 -18.95,-0.08 -28.43,0 0.03,9.16 -0.13,18.32 0.08,27.48 -1.32,-8.96 -0.1,-18.02 -0.76,-27.02 -8.99,-0.22 -17.98,-0.23 -26.97,-0.05 -0.56,9.08 0.36,18.19 -0.55,27.25 -4.99,-0.13 -9.98,-0.13 -14.96,0.25 l -0.19,0.01 c -3.35,-8.7 -6.3799997,-17.54 -8.5699997,-26.6 0.12,-0.43 0.36,-1.29 0.48,-1.72 7.6699997,-0.21 15.3399997,-0.16 23.0099997,0.05 9.41,0.31 18.82,0.15 28.23,0.13 0.06,-9.51 0.09,-19.01 -0.03,-28.51 z"
     id="path102"
     inkscape:connector-curvature="0"
     style="fill:#a8babd" />
  <path
     d="m 143.09002,200.19253 c 9.35,-0.04 18.71,0.05 28.06,-0.09 0.11,0.11 0.33,0.32 0.44,0.42 -0.52,9.26 -0.14,18.55 -0.24,27.82 -9.41,-0.06 -18.82,0.08 -28.24,-0.06 0,-9.36 0,-18.72 -0.02,-28.09 z"
     id="path104"
     inkscape:connector-curvature="0"
     style="fill:#e8edee" />
  <path
     d="m 199.39002,200.81253 c 0.22,-0.23 0.65,-0.67 0.86,-0.9 0.47,9.42 -0.11,18.86 0.3,28.28 9.28,0.18 18.56,0.04 27.84,0.06 0,9.64 -0.01,19.29 -0.01,28.93 -9.31,-0.07 -18.61,0.14 -27.91,-0.1 l -0.74,-0.03 c 0.18,-9.32 0.13,-18.64 0.03,-27.96 l 0,-0.76 c -0.02,-9.17 0.31,-18.36 -0.37,-27.52 z"
     id="path106"
     inkscape:connector-curvature="0"
     style="fill:#a8babd" />
  <path
     d="m 200.25002,199.91253 c 9.36,0.76 18.77,0.36 28.15,0.36 0,9.33 -0.01,18.65 -0.01,27.98 -9.28,-0.02 -18.56,0.12 -27.84,-0.06 -0.41,-9.42 0.17,-18.86 -0.3,-28.28 z"
     id="path108"
     inkscape:connector-curvature="0"
     style="fill:#d3dcde" />
  <path
     d="m 171.59002,200.52253 c 4.79,4.54 9.33,9.31 14.04,13.93 4.6,-4.54 9.08,-9.19 13.76,-13.64 0.68,9.16 0.35,18.35 0.37,27.52 -9.47,0.3 -18.94,0.26 -28.41,0.01 0.1,-9.27 -0.28,-18.56 0.24,-27.82 z"
     id="path110"
     inkscape:connector-curvature="0"
     style="fill:#92a8ad" />
  <path
     d="m 143.11002,228.28253 c 9.42,0.14 18.83,0 28.24,0.06 9.47,0.25 18.94,0.29 28.41,-0.01 l 0,0.76 c -9.35,-0.27 -18.72,-0.34 -28.07,0.01 -0.1,9.39 -0.06,18.77 0.04,28.15 -9.53,-0.09 -19.06,-0.04 -28.59,-0.06 -0.01,-9.63 -0.02,-19.27 -0.03,-28.91 z"
     id="path112"
     inkscape:connector-curvature="0"
     style="fill:#bdcbcd" />
  <path
     d="m 285.92002,227.74253 c 0.02,0.3 0.06,0.9 0.08,1.2 0.67,9.35 0.03,18.74 0.33,28.11 0.03,9.41 -0.24,18.82 0.08,28.22 0.17,9.71 -0.17,19.42 0.13,29.12 l -0.73,-0.03 c -9.57,-0.41 -19.15,-0.13 -28.73,-0.2 0.08,-9.39 0.08,-18.79 0,-28.18 9.55,0.01 19.11,0 28.67,0 0.24,-19.41 -0.38,-38.84 0.17,-58.24 z"
     id="path114"
     inkscape:connector-curvature="0"
     style="fill:#a8babd" />
  <path
     d="m 29.590022,229.18253 c 8.99,-0.18 17.98,-0.17 26.97,0.05 0.66,9 -0.56,18.06 0.76,27.02 l 0.07,0.81 -0.42,0.02 c -9.12,0.6 -18.25,-0.01 -27.37,0.3 -0.75,9.13 0.42,18.3 -0.57,27.41 l -1.13,-0.41 0.11,-0.56 c 1.76,-9.02 0.03,-18.28 1.03,-27.39 0.91,-9.06 -0.01,-18.17 0.55,-27.25 z"
     id="path116"
     inkscape:connector-curvature="0"
     style="fill:#bdcbcd" />
  <path
     d="m 57.240022,228.77253 c 9.48,-0.08 18.95,-0.06 28.43,0 -0.03,9.38 -0.04,18.77 -0.04,28.16 -9.42,0.02 -18.83,-0.23 -28.24,0.13 l -0.07,-0.81 c -0.21,-9.16 -0.05,-18.32 -0.08,-27.48 z"
     id="path118"
     inkscape:connector-curvature="0"
     style="fill:#e8edee" />
  <path
     d="m 171.69002,229.10253 c 9.35,-0.35 18.72,-0.28 28.07,-0.01 0.1,9.32 0.15,18.64 -0.03,27.96 -8.37,-0.3 -16.77,-0.43 -25.14,-0.1 -3,-0.3 -3.39,2.97 -3.34,5.19 0,7.72 -0.04,15.45 0.21,23.17 -9.26,0.44 -18.55,-0.28 -27.8,0.51 l -0.57,0.02 c 0.15,-9.55 0.01,-19.1 0.05,-28.65 9.53,0.02 19.06,-0.03 28.59,0.06 -0.1,-9.38 -0.14,-18.76 -0.04,-28.15 z"
     id="path120"
     inkscape:connector-curvature="0"
     style="fill:#e8edee" />
  <path
     d="m 286.00002,228.94253 c 9.29,-0.33 18.6,-0.08 27.9,-0.16 -0.48,9.31 0.62,18.67 -0.57,27.93 -9,0.34 -18.01,-0.18 -27,0.34 -0.3,-9.37 0.34,-18.76 -0.33,-28.11 z"
     id="path122"
     inkscape:connector-curvature="0"
     style="fill:#e8edee" />
  <path
     d="m 313.90002,228.78253 c 9.67,-0.01 19.34,-0.06 29.02,0.03 0.29,9.36 -0.35,18.75 0.41,28.1 -9.71,-0.15 -19.41,-0.01 -29.11,-0.1 -0.4,9.49 -0.06,18.99 -0.18,28.48 -9.21,0.03 -18.42,0.03 -27.63,-0.02 -0.32,-9.4 -0.05,-18.81 -0.08,-28.22 8.99,-0.52 18,0 27,-0.34 1.19,-9.26 0.09,-18.62 0.57,-27.93 z"
     id="path124"
     inkscape:connector-curvature="0"
     style="fill:#d3dcde" />
  <path
     d="m 342.92002,228.81253 c 7.61,-0.03 15.23,-0.1 22.84,0.06 -1.3,9.92 -5.28,19.28 -8.62,28.65 -4.55,-0.95 -9.2,-0.69 -13.81,-0.61 -0.76,-9.35 -0.12,-18.74 -0.41,-28.1 z"
     id="path126"
     inkscape:connector-curvature="0"
     style="fill:#e8edee" />
  <path
     d="m 14.080022,256.68253 c 4.98,-0.38 9.97,-0.38 14.96,-0.25 -1,9.11 0.73,18.37 -1.03,27.39 -5.4,-8.62 -10.19,-17.67 -13.93,-27.14 z"
     id="path128"
     inkscape:connector-curvature="0"
     style="fill:#92a8ad" />
  <path
     d="m 29.600022,257.38253 c 9.12,-0.31 18.25,0.3 27.37,-0.3 0.3,9.42 -0.26,18.86 0.3,28.26 -9.34,0.48 -18.7,-0.12 -28.04,0.39 l -0.3,0.01 c 0.02,-0.23 0.08,-0.71 0.1,-0.95 0.99,-9.11 -0.18,-18.28 0.57,-27.41 z"
     id="path130"
     inkscape:connector-curvature="0"
     style="fill:#d3dcde" />
  <path
     d="m 56.970022,257.08253 0.42,-0.02 c 9.41,-0.36 18.82,-0.11 28.24,-0.13 0.05,9.69 -0.1,19.39 0.07,29.08 -9.45,0.27 -18.9,-0.11 -28.35,0.28 -0.02,-0.24 -0.06,-0.71 -0.08,-0.95 -0.56,-9.4 0,-18.84 -0.3,-28.26 z"
     id="path132"
     inkscape:connector-curvature="0"
     style="fill:#92a8ad" />
  <path
     d="m 171.25002,262.14253 c -0.05,-2.22 0.34,-5.49 3.34,-5.19 8.37,-0.33 16.77,-0.2 25.14,0.1 l 0.74,0.03 c -0.05,9.42 -0.08,18.84 0.02,28.26 -9.68,-0.08 -19.35,-0.05 -29.03,-0.03 -0.25,-7.72 -0.21,-15.45 -0.21,-23.17 z"
     id="path134"
     inkscape:connector-curvature="0"
     style="fill:#d3dcde" />
  <path
     d="m 200.47002,257.08253 c 9.3,0.24 18.6,0.03 27.91,0.1 0.06,9.46 -0.15,18.92 0.1,28.37 l -0.74,0.02 c -9.08,-0.25 -18.17,0 -27.25,-0.23 -0.1,-9.42 -0.07,-18.84 -0.02,-28.26 z"
     id="path136"
     inkscape:connector-curvature="0"
     style="fill:#e8edee" />
  <path
     d="m 314.04002,285.29253 c 0.12,-9.49 -0.22,-18.99 0.18,-28.48 9.7,0.09 19.4,-0.05 29.11,0.1 0.22,8.8 0,17.61 0.23,26.42 -0.5,1.05 -1.16,2.01 -1.78,3 -9.13,-0.36 -18.27,-0.22 -27.4,-0.16 -0.3,9.02 0.09,18.04 -0.24,27.06 -0.32,-9.31 -0.11,-18.63 -0.1,-27.94 z"
     id="path138"
     inkscape:connector-curvature="0"
     style="fill:#92a8ad" />
  <path
     d="m 343.33002,256.91253 c 4.61,-0.08 9.26,-0.34 13.81,0.61 -4.06,8.83 -8.18,17.69 -13.58,25.81 -0.23,-8.81 -0.01,-17.62 -0.23,-26.42 z"
     id="path140"
     inkscape:connector-curvature="0"
     style="fill:#a8babd" />
  <path
     d="m 29.230022,285.73253 c 9.34,-0.51 18.7,0.09 28.04,-0.39 0.02,0.24 0.06,0.71 0.08,0.95 0.8,9.43 0.19,18.9 0.32,28.35 -1.97,0.03 -3.94,0.05 -5.91,0.05 -8.15,-9.13 -16.11,-18.5 -22.53,-28.96 z"
     id="path142"
     inkscape:connector-curvature="0"
     style="fill:#a8babd" />
  <path
     d="m 143.66002,285.82253 c 9.25,-0.79 18.54,-0.07 27.8,-0.51 9.68,-0.02 19.35,-0.05 29.03,0.03 9.08,0.23 18.17,-0.02 27.25,0.23 -9.33,0.64 -18.69,0.02 -28.02,0.43 -0.03,9.4 -0.06,18.8 0.01,28.21 9.63,0.16 19.27,0.12 28.9,0.01 9.48,-0.14 18.97,-0.03 28.45,-0.06 9.58,0.07 19.16,-0.21 28.73,0.2 l 0.02,0.74 c -9.46,-0.14 -18.93,-0.28 -28.39,0.07 -0.45,9.11 -0.05,18.22 -0.23,27.34 0,0.17 -0.01,0.52 -0.01,0.69 -9.59,0.01 -19.17,0.07 -28.75,0 l -0.67,-0.01 c 0.17,-9.35 0.42,-18.71 -0.1,-28.05 -9.31,-0.48 -18.63,0.14 -27.93,-0.35 -9.35,-0.63 -18.73,-0.02 -28.09,-0.4 0,-9.48 0.03,-18.96 -0.02,-28.44 -9.33,-0.2 -18.65,-0.09 -27.98,-0.13 z"
     id="path144"
     inkscape:connector-curvature="0"
     style="fill:#bdcbcd" />
  <path
     d="m 227.74002,285.57253 0.74,-0.02 0.01,0.45 c 0.31,9.4 0.06,18.81 0.14,28.22 -9.63,0.11 -19.27,0.15 -28.9,-0.01 -0.07,-9.41 -0.04,-18.81 -0.01,-28.21 9.33,-0.41 18.69,0.21 28.02,-0.43 z"
     id="path146"
     inkscape:connector-curvature="0"
     style="fill:#92a8ad" />
  <path
     d="m 286.41002,285.27253 c 9.21,0.05 18.42,0.05 27.63,0.02 -0.01,9.31 -0.22,18.63 0.1,27.94 0.33,-9.02 -0.06,-18.04 0.24,-27.06 9.13,-0.06 18.27,-0.2 27.4,0.16 -6.63,9.99 -13.87,19.84 -22.5,28.12 -1.59,-0.1 -3.17,-0.27 -4.74,-0.44 -0.08,9.71 -0.06,19.41 0.09,29.11 0.1,9.43 -0.04,18.85 0.1,28.27 -9.59,0.08 -19.17,0.02 -28.76,0.04 0.09,-9.63 0.16,-19.26 -0.04,-28.88 9.27,0.01 18.55,0.17 27.82,-0.09 0.15,-9.32 0.32,-18.66 -0.08,-27.98 -9.04,-0.01 -18.09,0.19 -27.13,-0.09 -0.3,-9.7 0.04,-19.41 -0.13,-29.12 z"
     id="path148"
     inkscape:connector-curvature="0"
     style="fill:#bdcbcd" />
  <path
     d="m 57.350022,286.29253 c 9.45,-0.39 18.9,-0.01 28.35,-0.28 0.51,7.37 0.14,14.75 0.33,22.12 -0.15,1.82 0.35,3.97 -1,5.45 -1.2,1.14 -2.91,0.88 -4.42,0.99 -7.65,-0.02 -15.29,-0.19 -22.94,0.07 -0.13,-9.45 0.48,-18.92 -0.32,-28.35 z"
     id="path150"
     inkscape:connector-curvature="0"
     style="fill:#bdcbcd" />
  <path
     d="m 85.700022,286.01253 c 9.36,-0.09 18.709998,-0.02 28.069998,-0.04 0.13,9.4 0.04,18.79 0.06,28.19 -9.29,0.29 -18.679998,-0.46 -27.909998,0.3 -0.54,1.49 -0.33,3.11 -0.38,4.67 0.24,7.66 -0.06,15.33 0.13,22.98 -8.68,-5.41 -16.98,-11.5 -24.39,-18.58 -3.25,-2.86 -6.87,-5.36 -9.52,-8.84 1.97,0 3.94,-0.02 5.91,-0.05 7.65,-0.26 15.29,-0.09 22.94,-0.07 1.51,-0.11 3.22,0.15 4.42,-0.99 1.35,-1.48 0.85,-3.63 1,-5.45 -0.19,-7.37 0.18,-14.75 -0.33,-22.12 z"
     id="path152"
     inkscape:connector-curvature="0"
     style="fill:#e8edee" />
  <path
     d="m 113.77002,285.97253 c 9.77,-0.07 19.55,0.16 29.32,-0.13 -0.68,9.41 -0.04,18.85 -0.37,28.27 -9.35,-0.12 -18.69,-0.13 -28.04,0.04 l -0.85,0.01 c -0.02,-9.4 0.07,-18.79 -0.06,-28.19 z"
     id="path154"
     inkscape:connector-curvature="0"
     style="fill:#d3dcde" />
  <path
     d="m 143.09002,285.84253 0.57,-0.02 c 9.33,0.04 18.65,-0.07 27.98,0.13 0.05,9.48 0.02,18.96 0.02,28.44 l 0,0.71 c -9.66,-0.21 -19.32,-0.21 -28.97,0 l 0.03,-0.99 c 0.33,-9.42 -0.31,-18.86 0.37,-28.27 z"
     id="path156"
     inkscape:connector-curvature="0"
     style="fill:#92a8ad" />
  <path
     d="m 228.49002,286.00253 c 9.53,-0.06 19.06,-0.02 28.59,-0.02 0.08,9.39 0.08,18.79 0,28.18 -9.48,0.03 -18.97,-0.08 -28.45,0.06 -0.08,-9.41 0.17,-18.82 -0.14,-28.22 z"
     id="path158"
     inkscape:connector-curvature="0"
     style="fill:#e8edee" />
  <path
     d="m 85.920022,314.46253 c 9.23,-0.76 18.619998,-0.01 27.909998,-0.3 l 0.85,-0.01 c -0.39,9.33 0.24,18.68 -0.34,28 -0.02,0.26 -0.06,0.77 -0.09,1.03 -8.91,-0.32 -17.829998,-0.2 -26.739998,-0.02 -0.46,-0.26 -1.38,-0.78 -1.84,-1.05 -0.19,-7.65 0.11,-15.32 -0.13,-22.98 0.05,-1.56 -0.16,-3.18 0.38,-4.67 z"
     id="path160"
     inkscape:connector-curvature="0"
     style="fill:#92a8ad" />
  <path
     d="m 114.68002,314.15253 c 9.35,-0.17 18.69,-0.16 28.04,-0.04 l -0.03,0.99 c -0.4,9.01 0.08,18.03 -0.24,27.04 -9.37,0.18 -18.74,0.05 -28.11,0.01 0.58,-9.32 -0.05,-18.67 0.34,-28 z"
     id="path162"
     inkscape:connector-curvature="0"
     style="fill:#bdcbcd" />
  <path
     d="m 171.66002,314.39253 c 9.36,0.38 18.74,-0.23 28.09,0.4 -0.14,9.08 0.08,18.17 -0.2,27.25 -9.29,0.28 -18.59,0.04 -27.89,0.15 -0.05,-9.03 -0.04,-18.06 0,-27.09 l 0,-0.71 z"
     id="path164"
     inkscape:connector-curvature="0"
     style="fill:#e8edee" />
  <path
     d="m 285.81002,314.36253 0.73,0.03 c 9.04,0.28 18.09,0.08 27.13,0.09 0.4,9.32 0.23,18.66 0.08,27.98 -9.27,0.26 -18.55,0.1 -27.82,0.09 0.02,-9.15 0.21,-18.3 -0.1,-27.45 l -0.02,-0.74 z"
     id="path166"
     inkscape:connector-curvature="0"
     style="fill:#e8edee" />
  <path
     d="m 314.54002,314.01253 c 1.57,0.17 3.15,0.34 4.74,0.44 -0.45,0.69 -1.35,2.06 -1.79,2.75 8.48,8.54 17.13,16.92 25.47,25.6 -9.43,0.64 -18.89,0.1 -28.33,0.32 -0.15,-9.7 -0.17,-19.4 -0.09,-29.11 z"
     id="path168"
     inkscape:connector-curvature="0"
     style="fill:#a8babd" />
  <path
     d="m 142.69002,315.10253 c 9.65,-0.21 19.31,-0.21 28.97,0 -0.04,9.03 -0.05,18.06 0,27.09 l 0,0.91 -0.83,0 c -9.14,0.05 -18.28,-0.16 -27.42,0.08 -0.33,7.79 0.05,15.58 -0.26,23.37 -10,-2.31 -19.81,-5.45 -29.24,-9.46 0.08,-4.64 -0.11,-9.29 0.34,-13.91 0.03,-0.26 0.07,-0.77 0.09,-1.03 9.37,0.04 18.74,0.17 28.11,-0.01 0.32,-9.01 -0.16,-18.03 0.24,-27.04 z"
     id="path170"
     inkscape:connector-curvature="0"
     style="fill:#a8babd" />
  <path
     d="m 199.75002,314.79253 c 9.3,0.49 18.62,-0.13 27.93,0.35 0.52,9.34 0.27,18.7 0.1,28.05 -9.02,-0.03 -18.05,-0.21 -27.07,0.09 -0.27,9.22 0.28,18.47 -0.27,27.68 l -0.49,0.73 c -0.39,-9.52 0.19,-19.05 -0.31,-28.56 -9.33,-0.27 -18.65,-0.15 -27.98,-0.03 l 0,-0.91 c 9.3,-0.11 18.6,0.13 27.89,-0.15 0.28,-9.08 0.06,-18.17 0.2,-27.25 z"
     id="path172"
     inkscape:connector-curvature="0"
     style="fill:#d3dcde" />
  <path
     d="m 257.44002,315.17253 c 9.46,-0.35 18.93,-0.21 28.39,-0.07 0.31,9.15 0.12,18.3 0.1,27.45 -9.57,0.05 -19.15,0.12 -28.72,-0.04 0.18,-9.12 -0.22,-18.23 0.23,-27.34 z"
     id="path174"
     inkscape:connector-curvature="0"
     style="fill:#d3dcde" />
  <path
     d="m 257.20002,343.20253 c 0,-0.17 0.01,-0.52 0.01,-0.69 9.57,0.16 19.15,0.09 28.72,0.04 0.2,9.62 0.13,19.25 0.04,28.88 -9.64,-0.06 -19.29,0.14 -28.93,-0.11 0.22,-9.37 -0.05,-18.75 0.16,-28.12 z"
     id="path176"
     inkscape:connector-curvature="0"
     style="fill:#92a8ad" />
  <path
     d="m 87.510022,343.16253 c 8.91,-0.18 17.829998,-0.3 26.739998,0.02 -0.45,4.62 -0.26,9.27 -0.34,13.91 -9.15,-3.9 -18.259998,-8.17 -26.399998,-13.93 z"
     id="path178"
     inkscape:connector-curvature="0"
     style="fill:#d3dcde" />
  <path
     d="m 143.41002,343.18253 c 9.14,-0.24 18.28,-0.03 27.42,-0.08 0.21,8.97 0,17.94 0.14,26.9 0.92,0.35 1.85,0.68 2.78,1.01 -10.32,-0.37 -20.5,-2.33 -30.61,-4.31 l 0.01,-0.15 c 0.31,-7.79 -0.07,-15.58 0.26,-23.37 z"
     id="path180"
     inkscape:connector-curvature="0"
     style="fill:#d3dcde" />
  <path
     d="m 170.83002,343.10253 0.83,0 c 9.33,-0.12 18.65,-0.24 27.98,0.03 0.5,9.51 -0.08,19.04 0.31,28.56 -8.71,-0.77 -17.5,0.3 -26.2,-0.68 -0.93,-0.33 -1.86,-0.66 -2.78,-1.01 -0.14,-8.96 0.07,-17.93 -0.14,-26.9 z"
     id="path182"
     inkscape:connector-curvature="0"
     style="fill:#bdcbcd" />
  <path
     d="m 200.71002,343.28253 c 9.02,-0.3 18.05,-0.12 27.07,-0.09 l 0.67,0.01 c -0.28,9.38 -0.14,18.76 -0.13,28.15 -9.29,-0.19 -18.63,0.58 -27.88,-0.39 0.55,-9.21 0,-18.46 0.27,-27.68 z"
     id="path184"
     inkscape:connector-curvature="0"
     style="fill:#e8edee" />
  <path
     d="m 228.45002,343.20253 c 9.58,0.07 19.16,0.01 28.75,0 -0.21,9.37 0.06,18.75 -0.16,28.12 -9.57,0.2 -19.15,0.15 -28.72,0.03 -0.01,-9.39 -0.15,-18.77 0.13,-28.15 z"
     id="path186"
     inkscape:connector-curvature="0"
     style="fill:#d3dcde" />
  <path
     d="m 314.63002,343.12253 c 9.44,-0.22 18.9,0.32 28.33,-0.32 -1,9.5 -0.22,19.08 -0.47,28.61 -9.26,0.03 -18.51,0.06 -27.76,-0.02 -0.14,-9.42 0,-18.84 -0.1,-28.27 z"
     id="path188"
     inkscape:connector-curvature="0"
     style="fill:#d3dcde" />
  <path
     d="m 342.96002,342.80253 c 9.32,9.55 18.99,18.79 28.13,28.52 -9.53,0.23 -19.07,0.06 -28.6,0.09 0.25,-9.53 -0.53,-19.11 0.47,-28.61 z"
     id="path190"
     inkscape:connector-curvature="0"
     style="fill:#bdcbcd" />
</svg>
