<?xml version="1.0" ?><?xml-stylesheet href="mystyle.css" type="text/css"?><svg height="24px" version="1.1" viewBox="0 0 24 24" width="24px" xmlns="http://www.w3.org/2000/svg" xmlns:sketch="http://www.bohemiancoding.com/sketch/ns" xmlns:xlink="http://www.w3.org/1999/xlink"><title/><desc/><defs/><g fill="none" fill-rule="evenodd" id="miu" stroke="none" stroke-width="1"><g id="Artboard-1" transform="translate(-323.000000, -371.000000)"><g id="slice" transform="translate(215.000000, 119.000000)"/><path d="M337.207107,391 L343.5,391 C343.5,391 344,391.089109 344,390.544554 C344,390 343.5,390 343.5,390 L327.5,390 C327.5,390 327.000001,390 327,390.544554 C327,391.089109 327.5,391 327.5,391 L333.792893,391 L333.792893,391 L331.292893,393.5 L332,394.207107 L335.207107,391 L335.792893,391 L339,394.207107 L339.707107,393.5 L337.207107,391 Z M329,375 C329,375 327,375 327,377 L327,387 C327,389 329,389 329,389 L342,389 C342,389 344,389 344,387 L344,377 C344,375 342,375 342,375 L329,375 Z M336,373 L336.051948,372 L335,372 L335,373 L334,373 L334,374 L337,374 L337,373 L336,373 Z M337,385 L337,386 L342,386 L342,385 L337,385 Z M329,377 L329,379 L342,379 L342,377 L329,377 Z M337,382 L337,383 L342,383 L342,382 L337,382 Z M332,387 C333.656854,387 335,385.656854 335,384 L332,384 L332,381 C330.343146,381 329,382.343146 329,384 C329,385.656854 330.343146,387 332,387 Z" fill="#000000" id="device-board-presentation-content-chart-glyph"/></g></g></svg>
